<svg width="99" height="24" viewBox="0 0 99 24" fill="none" xmlns="http://www.w3.org/2000/svg">
<path d="M7.88214 16.825L4.18214 19.65C3.99881 19.8 3.79881 19.871 3.58214 19.863C3.36548 19.855 3.17381 19.7923 3.00714 19.675C2.84048 19.5577 2.71148 19.3993 2.62014 19.2C2.52881 19.0007 2.52448 18.784 2.60714 18.55L4.03214 13.925L0.407143 11.35C0.207143 11.2167 0.0821428 11.0417 0.0321428 10.825C-0.0178572 10.6083 -0.00952375 10.4083 0.0571429 10.225C0.12381 10.0417 0.240476 9.87901 0.407143 9.73701C0.57381 9.59501 0.773809 9.52434 1.00714 9.52501H5.48214L6.93214 4.72501C7.01548 4.49167 7.14481 4.31234 7.32014 4.18701C7.49548 4.06167 7.68281 3.99934 7.88214 4.00001C8.08148 4.00067 8.26914 4.06334 8.44514 4.18801C8.62114 4.31267 8.75014 4.49167 8.83214 4.72501L10.2821 9.52501H14.7571C14.9905 9.52501 15.1905 9.59601 15.3571 9.73801C15.5238 9.88001 15.6405 10.0423 15.7071 10.225C15.7738 10.4077 15.7821 10.6077 15.7321 10.825C15.6821 11.0423 15.5571 11.2173 15.3571 11.35L11.7321 13.925L13.1571 18.55C13.2405 18.7833 13.2365 19 13.1451 19.2C13.0538 19.4 12.9245 19.5583 12.7571 19.675C12.5898 19.7917 12.3981 19.8543 12.1821 19.863C11.9661 19.8717 11.7661 19.8007 11.5821 19.65L7.88214 16.825Z" fill="#FFEA00"/>
<path d="M26.8821 16.825L23.1821 19.65C22.9988 19.8 22.7988 19.871 22.5821 19.863C22.3655 19.855 22.1738 19.7923 22.0071 19.675C21.8405 19.5577 21.7115 19.3993 21.6201 19.2C21.5288 19.0007 21.5245 18.784 21.6071 18.55L23.0321 13.925L19.4071 11.35C19.2071 11.2167 19.0821 11.0417 19.0321 10.825C18.9821 10.6083 18.9905 10.4083 19.0571 10.225C19.1238 10.0417 19.2405 9.87901 19.4071 9.73701C19.5738 9.59501 19.7738 9.52434 20.0071 9.52501H24.4821L25.9321 4.72501C26.0155 4.49167 26.1448 4.31234 26.3201 4.18701C26.4955 4.06167 26.6828 3.99934 26.8821 4.00001C27.0815 4.00067 27.2691 4.06334 27.4451 4.18801C27.6211 4.31267 27.7501 4.49167 27.8321 4.72501L29.2821 9.52501H33.7571C33.9905 9.52501 34.1905 9.59601 34.3571 9.73801C34.5238 9.88001 34.6405 10.0423 34.7071 10.225C34.7738 10.4077 34.7821 10.6077 34.7321 10.825C34.6821 11.0423 34.5571 11.2173 34.3571 11.35L30.7321 13.925L32.1571 18.55C32.2405 18.7833 32.2365 19 32.1451 19.2C32.0538 19.4 31.9245 19.5583 31.7571 19.675C31.5898 19.7917 31.3981 19.8543 31.1821 19.863C30.9661 19.8717 30.7661 19.8007 30.5821 19.65L26.8821 16.825Z" fill="#FFEA00"/>
<path d="M46.8821 16.825L43.1821 19.65C42.9988 19.8 42.7988 19.871 42.5821 19.863C42.3655 19.855 42.1738 19.7923 42.0071 19.675C41.8405 19.5577 41.7115 19.3993 41.6201 19.2C41.5288 19.0007 41.5245 18.784 41.6071 18.55L43.0321 13.925L39.4071 11.35C39.2071 11.2167 39.0821 11.0417 39.0321 10.825C38.9821 10.6083 38.9905 10.4083 39.0571 10.225C39.1238 10.0417 39.2405 9.87901 39.4071 9.73701C39.5738 9.59501 39.7738 9.52434 40.0071 9.52501H44.4821L45.9321 4.72501C46.0155 4.49167 46.1448 4.31234 46.3201 4.18701C46.4955 4.06167 46.6828 3.99934 46.8821 4.00001C47.0815 4.00067 47.2691 4.06334 47.4451 4.18801C47.6211 4.31267 47.7501 4.49167 47.8321 4.72501L49.2821 9.52501H53.7571C53.9905 9.52501 54.1905 9.59601 54.3571 9.73801C54.5238 9.88001 54.6405 10.0423 54.7071 10.225C54.7738 10.4077 54.7821 10.6077 54.7321 10.825C54.6821 11.0423 54.5571 11.2173 54.3571 11.35L50.7321 13.925L52.1571 18.55C52.2405 18.7833 52.2365 19 52.1451 19.2C52.0538 19.4 51.9245 19.5583 51.7571 19.675C51.5898 19.7917 51.3981 19.8543 51.1821 19.863C50.9661 19.8717 50.7661 19.8007 50.5821 19.65L46.8821 16.825Z" fill="#FFEA00"/>
<path d="M67.8821 16.825L64.1821 19.65C63.9988 19.8 63.7988 19.871 63.5821 19.863C63.3655 19.855 63.1738 19.7923 63.0071 19.675C62.8405 19.5577 62.7115 19.3993 62.6201 19.2C62.5288 19.0007 62.5245 18.784 62.6071 18.55L64.0321 13.925L60.4071 11.35C60.2071 11.2167 60.0821 11.0417 60.0321 10.825C59.9821 10.6083 59.9905 10.4083 60.0571 10.225C60.1238 10.0417 60.2405 9.87901 60.4071 9.73701C60.5738 9.59501 60.7738 9.52434 61.0071 9.52501H65.4821L66.9321 4.72501C67.0155 4.49167 67.1448 4.31234 67.3201 4.18701C67.4955 4.06167 67.6828 3.99934 67.8821 4.00001C68.0815 4.00067 68.2691 4.06334 68.4451 4.18801C68.6211 4.31267 68.7501 4.49167 68.8321 4.72501L70.2821 9.52501H74.7571C74.9905 9.52501 75.1905 9.59601 75.3571 9.73801C75.5238 9.88001 75.6405 10.0423 75.7071 10.225C75.7738 10.4077 75.7821 10.6077 75.7321 10.825C75.6821 11.0423 75.5571 11.2173 75.3571 11.35L71.7321 13.925L73.1571 18.55C73.2405 18.7833 73.2365 19 73.1451 19.2C73.0538 19.4 72.9245 19.5583 72.7571 19.675C72.5898 19.7917 72.3981 19.8543 72.1821 19.863C71.9661 19.8717 71.7661 19.8007 71.5821 19.65L67.8821 16.825Z" fill="#FFEA00"/>
<path d="M88.8821 16.825L85.1821 19.65C84.9988 19.8 84.7988 19.871 84.5821 19.863C84.3655 19.855 84.1738 19.7923 84.0071 19.675C83.8405 19.5577 83.7115 19.3993 83.6201 19.2C83.5288 19.0007 83.5245 18.784 83.6071 18.55L85.0321 13.925L81.4071 11.35C81.2071 11.2167 81.0821 11.0417 81.0321 10.825C80.9821 10.6083 80.9905 10.4083 81.0571 10.225C81.1238 10.0417 81.2405 9.87901 81.4071 9.73701C81.5738 9.59501 81.7738 9.52434 82.0071 9.52501H86.4821L87.9321 4.72501C88.0155 4.49167 88.1448 4.31234 88.3201 4.18701C88.4955 4.06167 88.6828 3.99934 88.8821 4.00001C89.0815 4.00067 89.2691 4.06334 89.4451 4.18801C89.6211 4.31267 89.7501 4.49167 89.8321 4.72501L91.2821 9.52501H95.7571C95.9905 9.52501 96.1905 9.59601 96.3571 9.73801C96.5238 9.88001 96.6405 10.0423 96.7071 10.225C96.7738 10.4077 96.7821 10.6077 96.7321 10.825C96.6821 11.0423 96.5571 11.2173 96.3571 11.35L92.7321 13.925L94.1571 18.55C94.2405 18.7833 94.2365 19 94.1451 19.2C94.0538 19.4 93.9245 19.5583 93.7571 19.675C93.5898 19.7917 93.3981 19.8543 93.1821 19.863C92.9661 19.8717 92.7661 19.8007 92.5821 19.65L88.8821 16.825Z" fill="#9F9F98"/>
</svg>
