<svg width="59" height="18" viewBox="0 0 59 18" fill="none" xmlns="http://www.w3.org/2000/svg">
<path d="M0.936 14.712C1.48 14.28 1.728 14.08 1.68 14.112C3.248 12.816 4.48 11.752 5.376 10.92C6.288 10.088 7.056 9.216 7.68 8.304C8.304 7.392 8.616 6.504 8.616 5.64C8.616 4.984 8.464 4.472 8.16 4.104C7.856 3.736 7.4 3.552 6.792 3.552C6.184 3.552 5.704 3.784 5.352 4.248C5.016 4.696 4.848 5.336 4.848 6.168H0.888C0.92 4.808 1.208 3.672 1.752 2.76C2.312 1.848 3.04 1.176 3.936 0.743999C4.848 0.311999 5.856 0.0959988 6.96 0.0959988C8.864 0.0959988 10.296 0.583999 11.256 1.56C12.232 2.536 12.72 3.808 12.72 5.376C12.72 7.088 12.136 8.68 10.968 10.152C9.8 11.608 8.312 13.032 6.504 14.424H12.984V17.76H0.936V14.712ZM14.7909 9C14.7909 6.248 15.3189 4.08 16.3749 2.496C17.4469 0.911999 19.1669 0.119998 21.5349 0.119998C23.9029 0.119998 25.6149 0.911999 26.6709 2.496C27.7429 4.08 28.2789 6.248 28.2789 9C28.2789 11.784 27.7429 13.968 26.6709 15.552C25.6149 17.136 23.9029 17.928 21.5349 17.928C19.1669 17.928 17.4469 17.136 16.3749 15.552C15.3189 13.968 14.7909 11.784 14.7909 9ZM24.2469 9C24.2469 7.384 24.0709 6.144 23.7189 5.28C23.3669 4.4 22.6389 3.96 21.5349 3.96C20.4309 3.96 19.7029 4.4 19.3509 5.28C18.9989 6.144 18.8229 7.384 18.8229 9C18.8229 10.088 18.8869 10.992 19.0149 11.712C19.1429 12.416 19.3989 12.992 19.7829 13.44C20.1829 13.872 20.7669 14.088 21.5349 14.088C22.3029 14.088 22.8789 13.872 23.2629 13.44C23.6629 12.992 23.9269 12.416 24.0549 11.712C24.1829 10.992 24.2469 10.088 24.2469 9ZM30.4472 9C30.4472 6.248 30.9752 4.08 32.0312 2.496C33.1032 0.911999 34.8232 0.119998 37.1912 0.119998C39.5592 0.119998 41.2712 0.911999 42.3272 2.496C43.3992 4.08 43.9352 6.248 43.9352 9C43.9352 11.784 43.3992 13.968 42.3272 15.552C41.2712 17.136 39.5592 17.928 37.1912 17.928C34.8232 17.928 33.1032 17.136 32.0312 15.552C30.9752 13.968 30.4472 11.784 30.4472 9ZM39.9032 9C39.9032 7.384 39.7272 6.144 39.3752 5.28C39.0232 4.4 38.2952 3.96 37.1912 3.96C36.0872 3.96 35.3592 4.4 35.0072 5.28C34.6552 6.144 34.4792 7.384 34.4792 9C34.4792 10.088 34.5432 10.992 34.6712 11.712C34.7992 12.416 35.0552 12.992 35.4392 13.44C35.8392 13.872 36.4232 14.088 37.1912 14.088C37.9592 14.088 38.5352 13.872 38.9192 13.44C39.3192 12.992 39.5832 12.416 39.7112 11.712C39.8392 10.992 39.9032 10.088 39.9032 9ZM58.6794 11.448H54.5034V15.72H50.6154V11.448H46.4394V7.776H50.6154V3.48H54.5034V7.776H58.6794V11.448Z" fill="white"/>
</svg>
