<svg width="43" height="18" viewBox="0 0 43 18" fill="none" xmlns="http://www.w3.org/2000/svg">
<path d="M0.936 14.712C1.48 14.28 1.728 14.08 1.68 14.112C3.248 12.816 4.48 11.752 5.376 10.92C6.288 10.088 7.056 9.216 7.68 8.304C8.304 7.392 8.616 6.504 8.616 5.64C8.616 4.984 8.464 4.472 8.16 4.104C7.856 3.736 7.4 3.552 6.792 3.552C6.184 3.552 5.704 3.784 5.352 4.248C5.016 4.696 4.848 5.336 4.848 6.168H0.888C0.92 4.808 1.208 3.672 1.752 2.76C2.312 1.848 3.04 1.176 3.936 0.743999C4.848 0.311999 5.856 0.0959988 6.96 0.0959988C8.864 0.0959988 10.296 0.583999 11.256 1.56C12.232 2.536 12.72 3.808 12.72 5.376C12.72 7.088 12.136 8.68 10.968 10.152C9.8 11.608 8.312 13.032 6.504 14.424H12.984V17.76H0.936V14.712ZM23.3829 18L19.3029 12.384V18H15.1989V0.24H19.3029V10.056L23.3589 4.608H28.4229L22.8549 11.328L28.4709 18H23.3829ZM42.2029 11.448H38.0269V15.72H34.1389V11.448H29.9629V7.776H34.1389V3.48H38.0269V7.776H42.2029V11.448Z" fill="white"/>
</svg>
