<svg width="47" height="47" viewBox="0 0 47 47" fill="none" xmlns="http://www.w3.org/2000/svg">
<g clip-path="url(#clip0_206_20)">
<path fill-rule="evenodd" clip-rule="evenodd" d="M23.5 42.5938C26.852 42.5987 30.1456 41.717 33.0469 40.0381V33.7812C33.0469 32.0283 32.3505 30.3472 31.111 29.1077C29.8715 27.8682 28.1904 27.1719 26.4375 27.1719H20.5625C18.8096 27.1719 17.1285 27.8682 15.889 29.1077C14.6495 30.3472 13.9531 32.0283 13.9531 33.7812V40.0381C16.8544 41.717 20.148 42.5987 23.5 42.5938ZM37.4531 33.7812V36.5337C39.9932 33.8145 41.6834 30.4123 42.3159 26.7454C42.9484 23.0785 42.4957 19.3068 41.0134 15.8937C39.5311 12.4807 37.0838 9.57511 33.9724 7.53423C30.861 5.49334 27.221 4.40607 23.5 4.40607C19.779 4.40607 16.139 5.49334 13.0276 7.53423C9.91619 9.57511 7.46892 12.4807 5.98662 15.8937C4.50433 19.3068 4.05161 23.0785 4.68412 26.7454C5.31663 30.4123 7.00681 33.8145 9.54688 36.5337V33.7812C9.546 31.51 10.2472 29.294 11.5545 27.4367C12.8617 25.5794 14.7112 24.1716 16.8495 23.406C15.7403 22.1301 15.0214 20.5621 14.7788 18.889C14.5361 17.2159 14.7798 15.5083 15.4808 13.9698C16.1819 12.4314 17.3107 11.1271 18.7325 10.2125C20.1544 9.29785 21.8094 8.81154 23.5 8.81154C25.1906 8.81154 26.8456 9.29785 28.2675 10.2125C29.6893 11.1271 30.8181 12.4314 31.5192 13.9698C32.2202 15.5083 32.4639 17.2159 32.2212 18.889C31.9786 20.5621 31.2597 22.1301 30.1505 23.406C32.2888 24.1716 34.1383 25.5794 35.4455 27.4367C36.7528 29.294 37.454 31.51 37.4531 33.7812ZM23.5 47C29.7326 47 35.7099 44.5241 40.117 40.117C44.5241 35.7099 47 29.7326 47 23.5C47 17.2674 44.5241 11.2901 40.117 6.88299C35.7099 2.47589 29.7326 0 23.5 0C17.2674 0 11.2901 2.47589 6.88299 6.88299C2.47589 11.2901 0 17.2674 0 23.5C0 29.7326 2.47589 35.7099 6.88299 40.117C11.2901 44.5241 17.2674 47 23.5 47ZM27.9062 17.625C27.9062 18.7936 27.442 19.9144 26.6157 20.7407C25.7894 21.567 24.6686 22.0312 23.5 22.0312C22.3314 22.0312 21.2106 21.567 20.3843 20.7407C19.558 19.9144 19.0938 18.7936 19.0938 17.625C19.0938 16.4564 19.558 15.3356 20.3843 14.5093C21.2106 13.683 22.3314 13.2188 23.5 13.2188C24.6686 13.2188 25.7894 13.683 26.6157 14.5093C27.442 15.3356 27.9062 16.4564 27.9062 17.625Z" fill="#461356"/>
</g>
<defs>
<clipPath id="clip0_206_20">
<rect width="47" height="47" fill="white"/>
</clipPath>
</defs>
</svg>
