<svg width="255" height="62" viewBox="0 0 255 62" fill="none" xmlns="http://www.w3.org/2000/svg">
<path d="M228.939 43.4646L219.409 50.7625C218.936 51.15 218.421 51.3334 217.863 51.3127C217.305 51.2921 216.811 51.1302 216.382 50.8271C215.953 50.524 215.62 50.1149 215.385 49.6C215.15 49.085 215.139 48.5253 215.352 47.9208L219.022 35.9729L209.685 29.3208C209.17 28.9764 208.848 28.5243 208.719 27.9646C208.59 27.4049 208.612 26.8882 208.784 26.4146C208.955 25.941 209.256 25.5207 209.685 25.1539C210.114 24.7871 210.629 24.6045 211.231 24.6062H222.757L226.492 12.2062C226.707 11.6035 227.04 11.1402 227.491 10.8164C227.943 10.4926 228.425 10.3316 228.939 10.3333C229.452 10.335 229.936 10.4969 230.389 10.819C230.842 11.141 231.175 11.6035 231.386 12.2062L235.121 24.6062H246.647C247.248 24.6062 247.763 24.7897 248.193 25.1565C248.622 25.5233 248.922 25.9427 249.094 26.4146C249.266 26.8865 249.287 27.4031 249.159 27.9646C249.03 28.526 248.708 28.9781 248.193 29.3208L238.856 35.9729L242.526 47.9208C242.741 48.5236 242.73 49.0833 242.495 49.6C242.26 50.1167 241.927 50.5257 241.496 50.8271C241.065 51.1285 240.571 51.2904 240.015 51.3127C239.458 51.3351 238.943 51.1517 238.469 50.7625L228.939 43.4646Z" fill="#9F9F98"/>
<path d="M179.302 43.1313L169.772 50.4292C169.3 50.8167 168.785 51.0001 168.227 50.9794C167.669 50.9588 167.175 50.7969 166.746 50.4938C166.316 50.1907 165.984 49.7816 165.749 49.2667C165.514 48.7517 165.502 48.192 165.715 47.5875L169.386 35.6396L160.049 28.9875C159.534 28.6431 159.212 28.191 159.083 27.6313C158.954 27.0715 158.975 26.5549 159.147 26.0813C159.319 25.6077 159.619 25.1874 160.049 24.8206C160.478 24.4538 160.993 24.2712 161.594 24.2729H173.121L176.856 11.8729C177.07 11.2702 177.403 10.8069 177.855 10.4831C178.307 10.1593 178.789 9.99829 179.302 10C179.816 10.0017 180.299 10.1636 180.753 10.4857C181.206 10.8077 181.538 11.2702 181.749 11.8729L185.484 24.2729H197.011C197.612 24.2729 198.127 24.4563 198.556 24.8232C198.986 25.19 199.286 25.6094 199.458 26.0813C199.63 26.5532 199.651 27.0698 199.522 27.6313C199.393 28.1927 199.071 28.6448 198.556 28.9875L189.219 35.6396L192.89 47.5875C193.104 48.1903 193.094 48.75 192.859 49.2667C192.623 49.7833 192.29 50.1924 191.859 50.4938C191.428 50.7952 190.935 50.957 190.378 50.9794C189.822 51.0018 189.307 50.8184 188.833 50.4292L179.302 43.1313Z" fill="#FFEA00"/>
<path d="M128.302 43.1313L118.772 50.4292C118.3 50.8167 117.785 51.0001 117.227 50.9794C116.669 50.9588 116.175 50.7969 115.746 50.4938C115.316 50.1907 114.984 49.7816 114.749 49.2667C114.514 48.7517 114.502 48.192 114.715 47.5875L118.386 35.6396L109.049 28.9875C108.534 28.6431 108.212 28.191 108.083 27.6313C107.954 27.0715 107.975 26.5549 108.147 26.0813C108.319 25.6077 108.619 25.1874 109.049 24.8206C109.478 24.4538 109.993 24.2712 110.594 24.2729H122.121L125.856 11.8729C126.07 11.2702 126.403 10.8069 126.855 10.4831C127.307 10.1593 127.789 9.99829 128.302 10C128.816 10.0017 129.299 10.1636 129.753 10.4857C130.206 10.8077 130.538 11.2702 130.749 11.8729L134.484 24.2729H146.011C146.612 24.2729 147.127 24.4563 147.556 24.8232C147.986 25.19 148.286 25.6094 148.458 26.0813C148.63 26.5532 148.651 27.0698 148.522 27.6313C148.393 28.1927 148.071 28.6448 147.556 28.9875L138.219 35.6396L141.89 47.5875C142.104 48.1903 142.094 48.75 141.859 49.2667C141.623 49.7833 141.29 50.1924 140.859 50.4938C140.428 50.7952 139.935 50.957 139.378 50.9794C138.822 51.0018 138.307 50.8184 137.833 50.4292L128.302 43.1313Z" fill="#FFEA00"/>
<path d="M76.3025 43.1313L66.7722 50.4292C66.3 50.8167 65.7848 51.0001 65.2267 50.9794C64.6687 50.9588 64.175 50.7969 63.7457 50.4938C63.3164 50.1907 62.9841 49.7816 62.7489 49.2667C62.5136 48.7517 62.5024 48.192 62.7154 47.5875L66.3858 35.6396L57.0487 28.9875C56.5335 28.6431 56.2116 28.191 56.0828 27.6313C55.954 27.0715 55.9755 26.5549 56.1472 26.0813C56.3189 25.6077 56.6194 25.1874 57.0487 24.8206C57.478 24.4538 57.9931 24.2712 58.5942 24.2729H70.1207L73.8555 11.8729C74.0702 11.2702 74.4033 10.8069 74.8549 10.4831C75.3065 10.1593 75.7891 9.99829 76.3025 10C76.8159 10.0017 77.2993 10.1636 77.7526 10.4857C78.206 10.8077 78.5382 11.2702 78.7495 11.8729L82.4843 24.2729H94.0108C94.6118 24.2729 95.127 24.4563 95.5563 24.8232C95.9856 25.19 96.2861 25.6094 96.4578 26.0813C96.6295 26.5532 96.651 27.0698 96.5222 27.6313C96.3934 28.1927 96.0714 28.6448 95.5563 28.9875L86.2192 35.6396L89.8896 47.5875C90.1043 48.1903 90.094 48.75 89.8587 49.2667C89.6235 49.7833 89.2903 50.1924 88.8593 50.4938C88.4283 50.7952 87.9346 50.957 87.3782 50.9794C86.8219 51.0018 86.3067 50.8184 85.8328 50.4292L76.3025 43.1313Z" fill="#FFEA00"/>
<path d="M27.3025 43.1313L17.7722 50.4292C17.3 50.8167 16.7848 51.0001 16.2267 50.9794C15.6687 50.9588 15.175 50.7969 14.7457 50.4938C14.3164 50.1907 13.9841 49.7816 13.7489 49.2667C13.5136 48.7517 13.5024 48.192 13.7154 47.5875L17.3858 35.6396L8.0487 28.9875C7.53355 28.6431 7.21158 28.191 7.08279 27.6313C6.954 27.0715 6.97547 26.5549 7.14719 26.0813C7.3189 25.6077 7.61941 25.1874 8.0487 24.8206C8.47799 24.4538 8.99315 24.2712 9.59416 24.2729H21.1207L24.8555 11.8729C25.0702 11.2702 25.4033 10.8069 25.8549 10.4831C26.3065 10.1593 26.7891 9.99829 27.3025 10C27.8159 10.0017 28.2993 10.1636 28.7526 10.4857C29.206 10.8077 29.5382 11.2702 29.7495 11.8729L33.4843 24.2729H45.0108C45.6118 24.2729 46.127 24.4563 46.5563 24.8232C46.9856 25.19 47.2861 25.6094 47.4578 26.0813C47.6295 26.5532 47.651 27.0698 47.5222 27.6313C47.3934 28.1927 47.0714 28.6448 46.5563 28.9875L37.2192 35.6396L40.8896 47.5875C41.1043 48.1903 41.094 48.75 40.8587 49.2667C40.6235 49.7833 40.2903 50.1924 39.8593 50.4938C39.4283 50.7952 38.9346 50.957 38.3782 50.9794C37.8219 51.0018 37.3067 50.8184 36.8328 50.4292L27.3025 43.1313Z" fill="#FFEA00"/>
</svg>
