<svg width="37" height="37" viewBox="0 0 37 37" fill="none" xmlns="http://www.w3.org/2000/svg">
<path d="M13.875 7.70829C13.875 7.29942 13.7126 6.90729 13.4235 6.61817C13.1343 6.32905 12.7422 6.16663 12.3333 6.16663H9.25C8.84113 6.16663 8.449 6.32905 8.15988 6.61817C7.87076 6.90729 7.70834 7.29942 7.70834 7.70829V29.2916C7.70834 29.7005 7.87076 30.0926 8.15988 30.3817C8.449 30.6709 8.84113 30.8333 9.25 30.8333H12.3333C12.7422 30.8333 13.1343 30.6709 13.4235 30.3817C13.7126 30.0926 13.875 29.7005 13.875 29.2916M13.875 7.70829V29.2916M13.875 7.70829C13.875 7.29942 14.0374 6.90729 14.3265 6.61817C14.6157 6.32905 15.0078 6.16663 15.4167 6.16663H18.5C18.9089 6.16663 19.301 6.32905 19.5901 6.61817C19.8792 6.90729 20.0417 7.29942 20.0417 7.70829V29.2916C20.0417 29.7005 19.8792 30.0926 19.5901 30.3817C19.301 30.6709 18.9089 30.8333 18.5 30.8333H15.4167C15.0078 30.8333 14.6157 30.6709 14.3265 30.3817C14.0374 30.0926 13.875 29.7005 13.875 29.2916M7.70834 12.3333H13.875M13.875 24.6666H20.0417" stroke="white" stroke-width="2" stroke-linecap="round" stroke-linejoin="round"/>
<path d="M21.5833 13.875L27.75 12.3333M24.6667 24.6666L30.7146 23.1558M21.2796 7.02998L24.6466 6.2129C25.513 6.00478 26.3933 6.50582 26.623 7.3414L32.3195 28.0275C32.42 28.4062 32.3755 28.8088 32.1947 29.1564C32.0139 29.504 31.7099 29.7716 31.3421 29.9068L31.137 29.97L27.77 30.7871C26.9036 30.9952 26.0233 30.4942 25.7936 29.6586L20.0972 8.97248C19.9967 8.59377 20.0412 8.19119 20.222 7.84357C20.4028 7.49596 20.7068 7.22836 21.0746 7.09319L21.2796 7.02998Z" stroke="white" stroke-width="2" stroke-linecap="round" stroke-linejoin="round"/>
</svg>
