<svg width="34" height="34" viewBox="0 0 34 34" fill="none" xmlns="http://www.w3.org/2000/svg">
<path d="M28.5883 14.4358C27.5692 14.2522 26.5355 14.1621 25.5 14.1666C24.905 14.1666 24.3242 14.1666 23.7433 14.28C23.0206 13.3148 22.0975 12.5173 21.0375 11.9425C21.949 10.9491 22.4545 9.64984 22.4542 8.30165C22.4542 6.85135 21.878 5.46046 20.8525 4.43495C19.827 3.40944 18.4361 2.83331 16.9858 2.83331C15.5355 2.83331 14.1447 3.40944 13.1191 4.43495C12.0936 5.46046 11.5175 6.85135 11.5175 8.30165C11.5172 9.64984 12.0227 10.9491 12.9342 11.9425C11.8805 12.5204 10.9589 13.3117 10.2283 14.2658C9.67584 14.1666 9.09501 14.1666 8.50001 14.1666C7.46364 14.1715 6.4299 14.2711 5.41167 14.4641C5.08165 14.5245 4.78375 14.7 4.57102 14.9594C4.35829 15.2189 4.24453 15.5454 4.25001 15.8808V27.5683C4.24967 27.7764 4.29519 27.9821 4.38334 28.1706C4.47148 28.3591 4.60009 28.5259 4.76001 28.6591C4.91891 28.7931 5.10536 28.8905 5.30612 28.9444C5.50688 28.9982 5.71703 29.0073 5.92167 28.9708C6.76976 28.7882 7.63283 28.6839 8.50001 28.6591C11.2441 28.657 13.9285 29.4598 16.2208 30.9683L16.405 31.0391C16.593 31.1203 16.7952 31.1637 17 31.1666C17.1351 31.1642 17.269 31.1403 17.3967 31.0958H17.4958L17.68 31.025C19.9941 29.4778 22.7163 28.6542 25.5 28.6591C26.3654 28.6652 27.2285 28.7506 28.0783 28.9141C28.283 28.9506 28.4931 28.9416 28.6939 28.8877C28.8946 28.8339 29.0811 28.7365 29.24 28.6025C29.3999 28.4693 29.5285 28.3025 29.6167 28.1139C29.7048 27.9254 29.7503 27.7198 29.75 27.5116V15.8241C29.7488 15.4935 29.632 15.1738 29.4198 14.9202C29.2077 14.6667 28.9135 14.4953 28.5883 14.4358ZM17 5.66665C17.6636 5.7154 18.2843 6.01344 18.7372 6.5009C19.1902 6.98836 19.4419 7.62914 19.4419 8.29456C19.4419 8.95999 19.1902 9.60077 18.7372 10.0882C18.2843 10.5757 17.6636 10.8737 17 10.9225C16.3364 10.8737 15.7158 10.5757 15.2628 10.0882C14.8098 9.60077 14.5581 8.95999 14.5581 8.29456C14.5581 7.62914 14.8098 6.98836 15.2628 6.5009C15.7158 6.01344 16.3364 5.7154 17 5.66665ZM15.5833 27.3841C13.3633 26.3569 10.9462 25.8252 8.50001 25.8258C8.03251 25.8258 7.56501 25.8258 7.08334 25.8966V17C8.27128 16.8666 9.47162 16.8904 10.6533 17.0708H10.8092C12.4973 17.3811 14.1149 17.9955 15.5833 18.8841V27.3841ZM17 16.4333C16.3696 16.0707 15.7166 15.7489 15.045 15.47H14.96C14.4925 15.2858 14.025 15.1016 13.5433 14.96C14.5269 14.1771 15.743 13.7435 17 13.7275C18.2537 13.7354 19.4694 14.1589 20.4567 14.9316C19.2539 15.3068 18.095 15.8103 17 16.4333ZM26.9167 25.8966C24.0078 25.6044 21.0735 26.0934 18.4167 27.3133V18.8133C19.8883 17.9486 21.5067 17.3627 23.1908 17.085H23.4742C24.6132 16.9078 25.7703 16.8792 26.9167 17V25.8966Z" fill="white"/>
</svg>
